2020-08-05 12:24:29,942 automatically generating lexicon
2020-08-05 12:24:41,481 b'\r  0%|          | 0/859 [00:00<?, ?it/s]\r  1%|          | 9/859 [00:00<00:10, 82.17it/s]\r  2%|\xe2\x96\x8f         | 17/859 [00:00<00:10, 81.40it/s]\r  3%|\xe2\x96\x8e         | 26/859 [00:00<00:10, 80.81it/s]\r  4%|\xe2\x96\x8d         | 35/859 [00:00<00:10, 81.03it/s]\r  5%|\xe2\x96\x8c         | 44/859 [00:00<00:10, 80.63it/s]\r  6%|\xe2\x96\x8c         | 52/859 [00:00<00:10, 79.82it/s]\r  7%|\xe2\x96\x8b         | 60/859 [00:00<00:10, 79.73it/s]\r  8%|\xe2\x96\x8a         | 68/859 [00:00<00:10, 78.32it/s]\r  9%|\xe2\x96\x89         | 76/859 [00:00<00:10, 77.30it/s]\r 10%|\xe2\x96\x89         | 84/859 [00:01<00:10, 77.29it/s]\r 11%|\xe2\x96\x88         | 92/859 [00:01<00:10, 76.32it/s]\r 12%|\xe2\x96\x88\xe2\x96\x8f        | 100/859 [00:01<00:09, 76.71it/s]\r 13%|\xe2\x96\x88\xe2\x96\x8e        | 108/859 [00:01<00:09, 76.56it/s]\r 14%|\xe2\x96\x88\xe2\x96\x8e        | 116/859 [00:01<00:09, 76.01it/s]\r 14%|\xe2\x96\x88\xe2\x96\x8d        | 124/859 [00:01<00:09, 77.09it/s]\r 15%|\xe2\x96\x88\xe2\x96\x8c        | 132/859 [00:01<00:09, 77.15it/s]\r 16%|\xe2\x96\x88\xe2\x96\x8b        | 141/859 [00:01<00:09, 78.17it/s]\r 17%|\xe2\x96\x88\xe2\x96\x8b        | 149/859 [00:01<00:09, 78.33it/s]\r 18%|\xe2\x96\x88\xe2\x96\x8a        | 157/859 [00:02<00:09, 77.90it/s]\r 19%|\xe2\x96\x88\xe2\x96\x89        | 165/859 [00:02<00:08, 78.19it/s]\r 20%|\xe2\x96\x88\xe2\x96\x88        | 174/859 [00:02<00:08, 78.73it/s]\r 21%|\xe2\x96\x88\xe2\x96\x88        | 182/859 [00:02<00:08, 78.81it/s]\r 22%|\xe2\x96\x88\xe2\x96\x88\xe2\x96\x8f       | 191/859 [00:02<00:08, 79.29it/s]\r 23%|\xe2\x96\x88\xe2\x96\x88\xe2\x96\x8e       | 200/859 [00:02<00:08, 79.73it/s]\r 24%|\xe2\x96\x88\xe2\x96\x88\xe2\x96\x8d       | 208/859 [00:02<00:08, 79.35it/s]\r 25%|\xe2\x96\x88\xe2\x96\x88\xe2\x96\x8c       | 216/859 [00:02<00:08, 79.48it/s]\r 26%|\xe2\x96\x88\xe2\x96\x88\xe2\x96\x8c       | 224/859 [00:02<00:07, 79.39it/s]\r 27%|\xe2\x96\x88\xe2\x96\x88\xe2\x96\x8b       | 232/859 [00:02<00:07, 78.95it/s]\r 28%|\xe2\x96\x88\xe2\x96\x88\xe2\x96\x8a       | 240/859 [00:03<00:07, 78.91it/s]\r 29%|\xe2\x96\x88\xe2\x96\x88\xe2\x96\x89       | 249/859 [00:03<00:07, 79.54it/s]\r 30%|\xe2\x96\x88\xe2\x96\x88\xe2\x96\x88       | 258/859 [00:03<00:07, 80.36it/s]\r 31%|\xe2\x96\x88\xe2\x96\x88\xe2\x96\x88       | 267/859 [00:03<00:07, 80.03it/s]\r 32%|\xe2\x96\x88\xe2\x96\x88\xe2\x96\x88\xe2\x96\x8f      | 276/859 [00:03<00:07, 79.62it/s]\r 33%|\xe2\x96\x88\xe2\x96\x88\xe2\x96\x88\xe2\x96\x8e      | 285/859 [00:03<00:07, 80.02it/s]\r 34%|\xe2\x96\x88\xe2\x96\x88\xe2\x96\x88\xe2\x96\x8d      | 294/859 [00:03<00:07, 79.16it/s]\r 35%|\xe2\x96\x88\xe2\x96\x88\xe2\x96\x88\xe2\x96\x8c      | 302/859 [00:03<00:07, 77.90it/s]\r 36%|\xe2\x96\x88\xe2\x96\x88\xe2\x96\x88\xe2\x96\x8c      | 310/859 [00:03<00:07, 78.35it/s]\r 37%|\xe2\x96\x88\xe2\x96\x88\xe2\x96\x88\xe2\x96\x8b      | 319/859 [00:04<00:06, 79.31it/s]\r 38%|\xe2\x96\x88\xe2\x96\x88\xe2\x96\x88\xe2\x96\x8a      | 327/859 [00:04<00:06, 78.46it/s]\r 39%|\xe2\x96\x88\xe2\x96\x88\xe2\x96\x88\xe2\x96\x89      | 335/859 [00:04<00:06, 76.98it/s]\r 40%|\xe2\x96\x88\xe2\x96\x88\xe2\x96\x88\xe2\x96\x89      | 343/859 [00:04<00:06, 76.07it/s]\r 41%|\xe2\x96\x88\xe2\x96\x88\xe2\x96\x88\xe2\x96\x88      | 351/859 [00:04<00:06, 76.52it/s]\r 42%|\xe2\x96\x88\xe2\x96\x88\xe2\x96\x88\xe2\x96\x88\xe2\x96\x8f     | 359/859 [00:04<00:06, 76.20it/s]\r 43%|\xe2\x96\x88\xe2\x96\x88\xe2\x96\x88\xe2\x96\x88\xe2\x96\x8e     | 368/859 [00:04<00:06, 77.83it/s]\r 44%|\xe2\x96\x88\xe2\x96\x88\xe2\x96\x88\xe2\x96\x88\xe2\x96\x8d     | 376/859 [00:04<00:06, 78.16it/s]\r 45%|\xe2\x96\x88\xe2\x96\x88\xe2\x96\x88\xe2\x96\x88\xe2\x96\x8d     | 385/859 [00:04<00:06, 78.92it/s]\r 46%|\xe2\x96\x88\xe2\x96\x88\xe2\x96\x88\xe2\x96\x88\xe2\x96\x8c     | 393/859 [00:05<00:05, 78.97it/s]\r 47%|\xe2\x96\x88\xe2\x96\x88\xe2\x96\x88\xe2\x96\x88\xe2\x96\x8b     | 402/859 [00:05<00:05, 79.64it/s]\r 48%|\xe2\x96\x88\xe2\x96\x88\xe2\x96\x88\xe2\x96\x88\xe2\x96\x8a     | 410/859 [00:05<00:05, 79.47it/s]\r 49%|\xe2\x96\x88\xe2\x96\x88\xe2\x96\x88\xe2\x96\x88\xe2\x96\x8a     | 418/859 [00:05<00:05, 79.47it/s]\r 50%|\xe2\x96\x88\xe2\x96\x88\xe2\x96\x88\xe2\x96\x88\xe2\x96\x89     | 426/859 [00:05<00:05, 79.28it/s]\r 51%|\xe2\x96\x88\xe2\x96\x88\xe2\x96\x88\xe2\x96\x88\xe2\x96\x88     | 435/859 [00:05<00:05, 79.34it/s]\r 52%|\xe2\x96\x88\xe2\x96\x88\xe2\x96\x88\xe2\x96\x88\xe2\x96\x88\xe2\x96\x8f    | 444/859 [00:05<00:05, 79.38it/s]\r 53%|\xe2\x96\x88\xe2\x96\x88\xe2\x96\x88\xe2\x96\x88\xe2\x96\x88\xe2\x96\x8e    | 453/859 [00:05<00:05, 79.62it/s]\r 54%|\xe2\x96\x88\xe2\x96\x88\xe2\x96\x88\xe2\x96\x88\xe2\x96\x88\xe2\x96\x8d    | 462/859 [00:05<00:04, 79.90it/s]\r 55%|\xe2\x96\x88\xe2\x96\x88\xe2\x96\x88\xe2\x96\x88\xe2\x96\x88\xe2\x96\x8d    | 471/859 [00:05<00:04, 80.41it/s]\r 56%|\xe2\x96\x88\xe2\x96\x88\xe2\x96\x88\xe2\x96\x88\xe2\x96\x88\xe2\x96\x8c    | 480/859 [00:06<00:04, 80.02it/s]\r 57%|\xe2\x96\x88\xe2\x96\x88\xe2\x96\x88\xe2\x96\x88\xe2\x96\x88\xe2\x96\x8b    | 489/859 [00:06<00:04, 80.06it/s]\r 58%|\xe2\x96\x88\xe2\x96\x88\xe2\x96\x88\xe2\x96\x88\xe2\x96\x88\xe2\x96\x8a    | 498/859 [00:06<00:04, 79.64it/s]\r 59%|\xe2\x96\x88\xe2\x96\x88\xe2\x96\x88\xe2\x96\x88\xe2\x96\x88\xe2\x96\x89    | 506/859 [00:06<00:04, 79.34it/s]\r 60%|\xe2\x96\x88\xe2\x96\x88\xe2\x96\x88\xe2\x96\x88\xe2\x96\x88\xe2\x96\x89    | 514/859 [00:06<00:04, 79.24it/s]\r 61%|\xe2\x96\x88\xe2\x96\x88\xe2\x96\x88\xe2\x96\x88\xe2\x96\x88\xe2\x96\x88    | 522/859 [00:06<00:04, 79.24it/s]\r 62%|\xe2\x96\x88\xe2\x96\x88\xe2\x96\x88\xe2\x96\x88\xe2\x96\x88\xe2\x96\x88\xe2\x96\x8f   | 531/859 [00:06<00:04, 79.53it/s]\r 63%|\xe2\x96\x88\xe2\x96\x88\xe2\x96\x88\xe2\x96\x88\xe2\x96\x88\xe2\x96\x88\xe2\x96\x8e   | 540/859 [00:06<00:03, 79.97it/s]\r 64%|\xe2\x96\x88\xe2\x96\x88\xe2\x96\x88\xe2\x96\x88\xe2\x96\x88\xe2\x96\x88\xe2\x96\x8d   | 548/859 [00:06<00:03, 79.56it/s]\r 65%|\xe2\x96\x88\xe2\x96\x88\xe2\x96\x88\xe2\x96\x88\xe2\x96\x88\xe2\x96\x88\xe2\x96\x8d   | 557/859 [00:07<00:03, 80.00it/s]\r 66%|\xe2\x96\x88\xe2\x96\x88\xe2\x96\x88\xe2\x96\x88\xe2\x96\x88\xe2\x96\x88\xe2\x96\x8c   | 566/859 [00:07<00:03, 80.38it/s]\r 67%|\xe2\x96\x88\xe2\x96\x88\xe2\x96\x88\xe2\x96\x88\xe2\x96\x88\xe2\x96\x88\xe2\x96\x8b   | 575/859 [00:07<00:03, 80.07it/s]\r 68%|\xe2\x96\x88\xe2\x96\x88\xe2\x96\x88\xe2\x96\x88\xe2\x96\x88\xe2\x96\x88\xe2\x96\x8a   | 584/859 [00:07<00:03, 79.69it/s]\r 69%|\xe2\x96\x88\xe2\x96\x88\xe2\x96\x88\xe2\x96\x88\xe2\x96\x88\xe2\x96\x88\xe2\x96\x89   | 593/859 [00:07<00:03, 80.10it/s]\r 70%|\xe2\x96\x88\xe2\x96\x88\xe2\x96\x88\xe2\x96\x88\xe2\x96\x88\xe2\x96\x88\xe2\x96\x88   | 602/859 [00:07<00:03, 79.25it/s]\r 71%|\xe2\x96\x88\xe2\x96\x88\xe2\x96\x88\xe2\x96\x88\xe2\x96\x88\xe2\x96\x88\xe2\x96\x88   | 610/859 [00:07<00:03, 79.03it/s]\r 72%|\xe2\x96\x88\xe2\x96\x88\xe2\x96\x88\xe2\x96\x88\xe2\x96\x88\xe2\x96\x88\xe2\x96\x88\xe2\x96\x8f  | 619/859 [00:07<00:03, 79.90it/s]\r 73%|\xe2\x96\x88\xe2\x96\x88\xe2\x96\x88\xe2\x96\x88\xe2\x96\x88\xe2\x96\x88\xe2\x96\x88\xe2\x96\x8e  | 627/859 [00:07<00:02, 79.65it/s]\r 74%|\xe2\x96\x88\xe2\x96\x88\xe2\x96\x88\xe2\x96\x88\xe2\x96\x88\xe2\x96\x88\xe2\x96\x88\xe2\x96\x8d  | 636/859 [00:08<00:02, 80.17it/s]\r 75%|\xe2\x96\x88\xe2\x96\x88\xe2\x96\x88\xe2\x96\x88\xe2\x96\x88\xe2\x96\x88\xe2\x96\x88\xe2\x96\x8c  | 645/859 [00:08<00:02, 80.32it/s]\r 76%|\xe2\x96\x88\xe2\x96\x88\xe2\x96\x88\xe2\x96\x88\xe2\x96\x88\xe2\x96\x88\xe2\x96\x88\xe2\x96\x8c  | 654/859 [00:08<00:02, 80.36it/s]\r 77%|\xe2\x96\x88\xe2\x96\x88\xe2\x96\x88\xe2\x96\x88\xe2\x96\x88\xe2\x96\x88\xe2\x96\x88\xe2\x96\x8b  | 663/859 [00:08<00:02, 79.66it/s]\r 78%|\xe2\x96\x88\xe2\x96\x88\xe2\x96\x88\xe2\x96\x88\xe2\x96\x88\xe2\x96\x88\xe2\x96\x88\xe2\x96\x8a  | 671/859 [00:08<00:02, 79.62it/s]\r 79%|\xe2\x96\x88\xe2\x96\x88\xe2\x96\x88\xe2\x96\x88\xe2\x96\x88\xe2\x96\x88\xe2\x96\x88\xe2\x96\x89  | 679/859 [00:08<00:02, 77.83it/s]\r 80%|\xe2\x96\x88\xe2\x96\x88\xe2\x96\x88\xe2\x96\x88\xe2\x96\x88\xe2\x96\x88\xe2\x96\x88\xe2\x96\x89  | 687/859 [00:08<00:02, 78.09it/s]\r 81%|\xe2\x96\x88\xe2\x96\x88\xe2\x96\x88\xe2\x96\x88\xe2\x96\x88\xe2\x96\x88\xe2\x96\x88\xe2\x96\x88  | 696/859 [00:08<00:02, 79.07it/s]\r 82%|\xe2\x96\x88\xe2\x96\x88\xe2\x96\x88\xe2\x96\x88\xe2\x96\x88\xe2\x96\x88\xe2\x96\x88\xe2\x96\x88\xe2\x96\x8f | 705/859 [00:08<00:01, 79.98it/s]\r 83%|\xe2\x96\x88\xe2\x96\x88\xe2\x96\x88\xe2\x96\x88\xe2\x96\x88\xe2\x96\x88\xe2\x96\x88\xe2\x96\x88\xe2\x96\x8e | 714/859 [00:09<00:01, 78.83it/s]\r 84%|\xe2\x96\x88\xe2\x96\x88\xe2\x96\x88\xe2\x96\x88\xe2\x96\x88\xe2\x96\x88\xe2\x96\x88\xe2\x96\x88\xe2\x96\x8d | 722/859 [00:09<00:01, 77.19it/s]\r 85%|\xe2\x96\x88\xe2\x96\x88\xe2\x96\x88\xe2\x96\x88\xe2\x96\x88\xe2\x96\x88\xe2\x96\x88\xe2\x96\x88\xe2\x96\x8d | 730/859 [00:09<00:01, 76.95it/s]\r 86%|\xe2\x96\x88\xe2\x96\x88\xe2\x96\x88\xe2\x96\x88\xe2\x96\x88\xe2\x96\x88\xe2\x96\x88\xe2\x96\x88\xe2\x96\x8c | 738/859 [00:09<00:01, 77.41it/s]\r 87%|\xe2\x96\x88\xe2\x96\x88\xe2\x96\x88\xe2\x96\x88\xe2\x96\x88\xe2\x96\x88\xe2\x96\x88\xe2\x96\x88\xe2\x96\x8b | 746/859 [00:09<00:01, 77.85it/s]\r 88%|\xe2\x96\x88\xe2\x96\x88\xe2\x96\x88\xe2\x96\x88\xe2\x96\x88\xe2\x96\x88\xe2\x96\x88\xe2\x96\x88\xe2\x96\x8a | 754/859 [00:09<00:01, 77.78it/s]\r 89%|\xe2\x96\x88\xe2\x96\x88\xe2\x96\x88\xe2\x96\x88\xe2\x96\x88\xe2\x96\x88\xe2\x96\x88\xe2\x96\x88\xe2\x96\x8a | 762/859 [00:09<00:01, 78.26it/s]\r 90%|\xe2\x96\x88\xe2\x96\x88\xe2\x96\x88\xe2\x96\x88\xe2\x96\x88\xe2\x96\x88\xe2\x96\x88\xe2\x96\x88\xe2\x96\x89 | 770/859 [00:09<00:01, 78.26it/s]\r 91%|\xe2\x96\x88\xe2\x96\x88\xe2\x96\x88\xe2\x96\x88\xe2\x96\x88\xe2\x96\x88\xe2\x96\x88\xe2\x96\x88\xe2\x96\x88 | 778/859 [00:09<00:01, 78.49it/s]\r 92%|\xe2\x96\x88\xe2\x96\x88\xe2\x96\x88\xe2\x96\x88\xe2\x96\x88\xe2\x96\x88\xe2\x96\x88\xe2\x96\x88\xe2\x96\x88\xe2\x96\x8f| 787/859 [00:09<00:00, 79.06it/s]\r 93%|\xe2\x96\x88\xe2\x96\x88\xe2\x96\x88\xe2\x96\x88\xe2\x96\x88\xe2\x96\x88\xe2\x96\x88\xe2\x96\x88\xe2\x96\x88\xe2\x96\x8e| 795/859 [00:10<00:00, 78.64it/s]\r 93%|\xe2\x96\x88\xe2\x96\x88\xe2\x96\x88\xe2\x96\x88\xe2\x96\x88\xe2\x96\x88\xe2\x96\x88\xe2\x96\x88\xe2\x96\x88\xe2\x96\x8e| 803/859 [00:10<00:00, 78.62it/s]\r 94%|\xe2\x96\x88\xe2\x96\x88\xe2\x96\x88\xe2\x96\x88\xe2\x96\x88\xe2\x96\x88\xe2\x96\x88\xe2\x96\x88\xe2\x96\x88\xe2\x96\x8d| 811/859 [00:10<00:00, 78.93it/s]\r 95%|\xe2\x96\x88\xe2\x96\x88\xe2\x96\x88\xe2\x96\x88\xe2\x96\x88\xe2\x96\x88\xe2\x96\x88\xe2\x96\x88\xe2\x96\x88\xe2\x96\x8c| 820/859 [00:10<00:00, 79.15it/s]\r 97%|\xe2\x96\x88\xe2\x96\x88\xe2\x96\x88\xe2\x96\x88\xe2\x96\x88\xe2\x96\x88\xe2\x96\x88\xe2\x96\x88\xe2\x96\x88\xe2\x96\x8b| 829/859 [00:10<00:00, 79.59it/s]\r 97%|\xe2\x96\x88\xe2\x96\x88\xe2\x96\x88\xe2\x96\x88\xe2\x96\x88\xe2\x96\x88\xe2\x96\x88\xe2\x96\x88\xe2\x96\x88\xe2\x96\x8b| 837/859 [00:10<00:00, 79.42it/s]\r 98%|\xe2\x96\x88\xe2\x96\x88\xe2\x96\x88\xe2\x96\x88\xe2\x96\x88\xe2\x96\x88\xe2\x96\x88\xe2\x96\x88\xe2\x96\x88\xe2\x96\x8a| 845/859 [00:10<00:00, 78.95it/s]\r 99%|\xe2\x96\x88\xe2\x96\x88\xe2\x96\x88\xe2\x96\x88\xe2\x96\x88\xe2\x96\x88\xe2\x96\x88\xe2\x96\x88\xe2\x96\x88\xe2\x96\x89| 854/859 [00:10<00:00, 79.69it/s]\r100%|\xe2\x96\x88\xe2\x96\x88\xe2\x96\x88\xe2\x96\x88\xe2\x96\x88\xe2\x96\x88\xe2\x96\x88\xe2\x96\x88\xe2\x96\x88\xe2\x96\x88| 859/859 [00:10<00:00, 78.95it/s]\n'
2020-08-05 12:24:41,539 b'/bin/sh: 1: cannot create failed_g2p_cases: Permission denied\n'
2020-08-05 12:24:41,589 b'Traceback (most recent call last):\n  File "transliterate.py", line 31, in <module>\n    with open(failed_g2p_cases_file) as f, open(output_lexicon_file,\'w\') as f2:\nPermissionError: [Errno 13] Permission denied: \'transliteration_output\'\n'
2020-08-05 12:24:42,949 b'\r  0%|          | 0/64 [00:00<?, ?it/s]\r 12%|\xe2\x96\x88\xe2\x96\x8e        | 8/64 [00:00<00:00, 79.54it/s]\r 27%|\xe2\x96\x88\xe2\x96\x88\xe2\x96\x8b       | 17/64 [00:00<00:00, 81.39it/s]\r 41%|\xe2\x96\x88\xe2\x96\x88\xe2\x96\x88\xe2\x96\x88      | 26/64 [00:00<00:00, 82.54it/s]\r 55%|\xe2\x96\x88\xe2\x96\x88\xe2\x96\x88\xe2\x96\x88\xe2\x96\x88\xe2\x96\x8d    | 35/64 [00:00<00:00, 83.33it/s]\r 69%|\xe2\x96\x88\xe2\x96\x88\xe2\x96\x88\xe2\x96\x88\xe2\x96\x88\xe2\x96\x88\xe2\x96\x89   | 44/64 [00:00<00:00, 84.05it/s]\r 83%|\xe2\x96\x88\xe2\x96\x88\xe2\x96\x88\xe2\x96\x88\xe2\x96\x88\xe2\x96\x88\xe2\x96\x88\xe2\x96\x88\xe2\x96\x8e | 53/64 [00:00<00:00, 84.56it/s]\r 97%|\xe2\x96\x88\xe2\x96\x88\xe2\x96\x88\xe2\x96\x88\xe2\x96\x88\xe2\x96\x88\xe2\x96\x88\xe2\x96\x88\xe2\x96\x88\xe2\x96\x8b| 62/64 [00:00<00:00, 84.99it/s]\r100%|\xe2\x96\x88\xe2\x96\x88\xe2\x96\x88\xe2\x96\x88\xe2\x96\x88\xe2\x96\x88\xe2\x96\x88\xe2\x96\x88\xe2\x96\x88\xe2\x96\x88| 64/64 [00:00<00:00, 84.90it/s]\n'
2020-08-05 12:24:42,956 b'/bin/sh: 1: cannot create lexicon_temp8: Permission denied\n'
2020-08-05 12:25:11,040 b"Input #0, mov,mp4,m4a,3gp,3g2,mj2, from '/testdatahdd/datasets/ujjivan/voicecollectionblobcontainer/1564313867_110_146.mp3':\n  Metadata:\n    major_brand     : 3gp4\n    minor_version   : 0\n    compatible_brands: isom3gp4\n    creation_time   : 2019-07-28T11:37:36.000000Z\n    com.android.version: 8.0.0\n  Duration: 00:00:03.20, start: 0.000000, bitrate: 104 kb/s\n    Stream #0:0(eng): Audio: aac (LC) (mp4a / 0x6134706D), 16000 Hz, mono, fltp, 96 kb/s (default)\n    Metadata:\n      creation_time   : 2019-07-28T11:37:36.000000Z\n      handler_name    : SoundHandle\n/testdatahdd/datasets/ujjivan/wavs/ta/1564313867_110_146.temp.wav: Permission denied\n"
2020-08-05 12:25:11,048 b"rm: cannot remove '/testdatahdd/datasets/ujjivan/wavs/ta/1564313867_110_146.temp.wav': No such file or directory\n"
2020-08-05 12:25:11,048 b"sox FAIL formats: can't open input file `/testdatahdd/datasets/ujjivan/wavs/ta/1564313867_110_146.temp.wav': No such file or directory\n"
2020-08-05 12:25:12,904 b"Input #0, mov,mp4,m4a,3gp,3g2,mj2, from '/testdatahdd/datasets/ujjivan/voicecollectionblobcontainer/1566627197_141_146.mp3':\n  Metadata:\n    major_brand     : 3gp4\n    minor_version   : 0\n    compatible_brands: isom3gp4\n    creation_time   : 2019-08-24T06:13:01.000000Z\n    com.android.version: 7.0\n  Duration: 00:00:01.79, start: 0.000000, bitrate: 99 kb/s\n    Stream #0:0(eng): Audio: aac (LC) (mp4a / 0x6134706D), 16000 Hz, mono, fltp, 96 kb/s (default)\n    Metadata:\n      creation_time   : 2019-08-24T06:13:01.000000Z\n      handler_name    : SoundHandle\n/testdatahdd/datasets/ujjivan/wavs/ta/1566627197_141_146.temp.wav: Permission denied\n"
2020-08-05 12:25:12,912 b"rm: cannot remove '/testdatahdd/datasets/ujjivan/wavs/ta/1566627197_141_146.temp.wav': No such file or directory\n"
2020-08-05 12:25:12,912 b"sox FAIL formats: can't open input file `/testdatahdd/datasets/ujjivan/wavs/ta/1566627197_141_146.temp.wav': No such file or directory\n"
2020-08-05 12:25:14,200 b"Input #0, mov,mp4,m4a,3gp,3g2,mj2, from '/testdatahdd/datasets/ujjivan/voicecollectionblobcontainer/1564139151_117_146.mp3':\n  Metadata:\n    major_brand     : 3gp4\n    minor_version   : 0\n    compatible_brands: isom3gp4\n    creation_time   : 2019-07-26T11:05:44.000000Z\n    com.android.version: 8.1.0\n  Duration: 00:00:02.69, start: 0.000000, bitrate: 98 kb/s\n    Stream #0:0(eng): Audio: aac (LC) (mp4a / 0x6134706D), 16000 Hz, mono, fltp, 96 kb/s (default)\n    Metadata:\n      creation_time   : 2019-07-26T11:05:44.000000Z\n      handler_name    : SoundHandle\n/testdatahdd/datasets/ujjivan/wavs/ta/1564139151_117_146.temp.wav: Permission denied\n"
2020-08-05 12:25:14,207 b"rm: cannot remove '/testdatahdd/datasets/ujjivan/wavs/ta/1564139151_117_146.temp.wav': No such file or directory\n"
2020-08-05 12:25:14,208 b"sox FAIL formats: can't open input file `/testdatahdd/datasets/ujjivan/wavs/ta/1564139151_117_146.temp.wav': No such file or directory\n"
2020-08-05 12:25:14,977 b'[mov,mp4,m4a,3gp,3g2,mj2 @ 0x559f7965b940] moov atom not found\n/testdatahdd/datasets/ujjivan/voicecollectionblobcontainer/1564488976_117_485.mp3: Invalid data found when processing input\n'
2020-08-05 12:25:14,984 b"rm: cannot remove '/testdatahdd/datasets/ujjivan/wavs/ta/1564488976_117_485.temp.wav': No such file or directory\n"
2020-08-05 12:25:14,985 b"sox FAIL formats: can't open input file `/testdatahdd/datasets/ujjivan/wavs/ta/1564488976_117_485.temp.wav': No such file or directory\n"
2020-08-05 12:25:15,048 b'[mov,mp4,m4a,3gp,3g2,mj2 @ 0x55cebeca2940] moov atom not found\n/testdatahdd/datasets/ujjivan/voicecollectionblobcontainer/1564488979_117_485.mp3: Invalid data found when processing input\n'
2020-08-05 12:25:15,056 b"rm: cannot remove '/testdatahdd/datasets/ujjivan/wavs/ta/1564488979_117_485.temp.wav': No such file or directory\n"
2020-08-05 12:25:15,056 b"sox FAIL formats: can't open input file `/testdatahdd/datasets/ujjivan/wavs/ta/1564488979_117_485.temp.wav': No such file or directory\n"
2020-08-05 12:25:16,571 b"Input #0, mov,mp4,m4a,3gp,3g2,mj2, from '/testdatahdd/datasets/ujjivan/voicecollectionblobcontainer/1567597015_158_146.mp3':\n  Metadata:\n    major_brand     : 3gp4\n    minor_version   : 0\n    compatible_brands: isom3gp4\n    creation_time   : 2019-09-04T11:36:47.000000Z\n    com.android.version: 7.0\n  Duration: 00:00:02.82, start: 0.000000, bitrate: 98 kb/s\n    Stream #0:0(eng): Audio: aac (LC) (mp4a / 0x6134706D), 16000 Hz, mono, fltp, 96 kb/s (default)\n    Metadata:\n      creation_time   : 2019-09-04T11:36:47.000000Z\n      handler_name    : SoundHandle\n/testdatahdd/datasets/ujjivan/wavs/ta/1567597015_158_146.temp.wav: Permission denied\n"
2020-08-05 12:25:16,580 b"rm: cannot remove '/testdatahdd/datasets/ujjivan/wavs/ta/1567597015_158_146.temp.wav': No such file or directory\n"
2020-08-05 12:25:16,580 b"sox FAIL formats: can't open input file `/testdatahdd/datasets/ujjivan/wavs/ta/1567597015_158_146.temp.wav': No such file or directory\n"
2020-08-05 12:25:18,717 b"Input #0, mov,mp4,m4a,3gp,3g2,mj2, from '/testdatahdd/datasets/ujjivan/voicecollectionblobcontainer/1564122646_125_146.mp3':\n  Metadata:\n    major_brand     : 3gp4\n    minor_version   : 0\n    compatible_brands: isom3gp4\n    creation_time   : 2019-07-26T06:30:37.000000Z\n    com.android.version: 7.0\n  Duration: 00:00:03.01, start: 0.000000, bitrate: 98 kb/s\n    Stream #0:0(eng): Audio: aac (LC) (mp4a / 0x6134706D), 16000 Hz, mono, fltp, 96 kb/s (default)\n    Metadata:\n      creation_time   : 2019-07-26T06:30:37.000000Z\n      handler_name    : SoundHandle\n/testdatahdd/datasets/ujjivan/wavs/ta/1564122646_125_146.temp.wav: Permission denied\n"
2020-08-05 12:25:18,724 b"rm: cannot remove '/testdatahdd/datasets/ujjivan/wavs/ta/1564122646_125_146.temp.wav': No such file or directory\n"
2020-08-05 12:25:18,725 b"sox FAIL formats: can't open input file `/testdatahdd/datasets/ujjivan/wavs/ta/1564122646_125_146.temp.wav': No such file or directory\n"
2020-08-05 12:25:21,728 b"Input #0, mov,mp4,m4a,3gp,3g2,mj2, from '/testdatahdd/datasets/ujjivan/voicecollectionblobcontainer/1566746700_144_146.mp3':\n  Metadata:\n    major_brand     : 3gp4\n    minor_version   : 0\n    compatible_brands: isom3gp4\n    creation_time   : 2019-08-25T15:24:49.000000Z\n    com.android.version: 8.1.0\n  Duration: 00:00:03.39, start: 0.000000, bitrate: 103 kb/s\n    Stream #0:0(eng): Audio: aac (LC) (mp4a / 0x6134706D), 16000 Hz, mono, fltp, 96 kb/s (default)\n    Metadata:\n      creation_time   : 2019-08-25T15:24:49.000000Z\n      handler_name    : SoundHandle\n/testdatahdd/datasets/ujjivan/wavs/ta/1566746700_144_146.temp.wav: Permission denied\n"
2020-08-05 12:25:21,736 b"rm: cannot remove '/testdatahdd/datasets/ujjivan/wavs/ta/1566746700_144_146.temp.wav': No such file or directory\n"
2020-08-05 12:25:21,736 b"sox FAIL formats: can't open input file `/testdatahdd/datasets/ujjivan/wavs/ta/1566746700_144_146.temp.wav': No such file or directory\n"
2020-08-05 12:25:22,870 b"Input #0, mov,mp4,m4a,3gp,3g2,mj2, from '/testdatahdd/datasets/ujjivan/voicecollectionblobcontainer/1568295432_221_146.mp3':\n  Metadata:\n    major_brand     : 3gp4\n    minor_version   : 0\n    compatible_brands: isom3gp4\n    creation_time   : 2019-09-12T13:37:04.000000Z\n    com.android.version: 9\n  Duration: 00:00:02.30, start: 0.000000, bitrate: 107 kb/s\n    Stream #0:0(eng): Audio: aac (LC) (mp4a / 0x6134706D), 16000 Hz, mono, fltp, 96 kb/s (default)\n    Metadata:\n      creation_time   : 2019-09-12T13:37:04.000000Z\n      handler_name    : SoundHandle\n/testdatahdd/datasets/ujjivan/wavs/ta/1568295432_221_146.temp.wav: Permission denied\n"
2020-08-05 12:25:22,879 b"rm: cannot remove '/testdatahdd/datasets/ujjivan/wavs/ta/1568295432_221_146.temp.wav': No such file or directory\n"
2020-08-05 12:25:22,879 b"sox FAIL formats: can't open input file `/testdatahdd/datasets/ujjivan/wavs/ta/1568295432_221_146.temp.wav': No such file or directory\n"
2020-08-05 12:25:23,184 b"Input #0, mov,mp4,m4a,3gp,3g2,mj2, from '/testdatahdd/datasets/ujjivan/voicecollectionblobcontainer/1566546649_152_146.mp3':\n  Metadata:\n    major_brand     : 3gp4\n    minor_version   : 0\n    compatible_brands: isom3gp4\n    creation_time   : 2019-08-23T07:50:38.000000Z\n    com.android.version: 8.1.0\n  Duration: 00:00:03.78, start: 0.000000, bitrate: 102 kb/s\n    Stream #0:0(eng): Audio: aac (LC) (mp4a / 0x6134706D), 16000 Hz, mono, fltp, 96 kb/s (default)\n    Metadata:\n      creation_time   : 2019-08-23T07:50:38.000000Z\n      handler_name    : SoundHandle\n/testdatahdd/datasets/ujjivan/wavs/ta/1566546649_152_146.temp.wav: Permission denied\n"
2020-08-05 12:25:23,192 b"rm: cannot remove '/testdatahdd/datasets/ujjivan/wavs/ta/1566546649_152_146.temp.wav': No such file or directory\n"
2020-08-05 12:25:23,192 b"sox FAIL formats: can't open input file `/testdatahdd/datasets/ujjivan/wavs/ta/1566546649_152_146.temp.wav': No such file or directory\n"
2020-08-05 12:25:27,845 b"Input #0, mov,mp4,m4a,3gp,3g2,mj2, from '/testdatahdd/datasets/ujjivan/voicecollectionblobcontainer/1567002718_156_146.mp3':\n  Metadata:\n    major_brand     : 3gp4\n    minor_version   : 0\n    compatible_brands: isom3gp4\n    creation_time   : 2019-08-28T14:31:50.000000Z\n    com.android.version: 9\n    com.android.manufacturer: motorola\n    com.android.model: moto g(6) plus\n  Duration: 00:00:02.69, start: 0.000000, bitrate: 105 kb/s\n    Stream #0:0(eng): Audio: aac (LC) (mp4a / 0x6134706D), 16000 Hz, mono, fltp, 96 kb/s (default)\n    Metadata:\n      creation_time   : 2019-08-28T14:31:50.000000Z\n      handler_name    : SoundHandle\n/testdatahdd/datasets/ujjivan/wavs/ta/1567002718_156_146.temp.wav: Permission denied\n"
2020-08-05 12:25:27,852 b"rm: cannot remove '/testdatahdd/datasets/ujjivan/wavs/ta/1567002718_156_146.temp.wav': No such file or directory\n"
2020-08-05 12:25:27,853 b"sox FAIL formats: can't open input file `/testdatahdd/datasets/ujjivan/wavs/ta/1567002718_156_146.temp.wav': No such file or directory\n"
2020-08-05 12:25:29,825 b"Input #0, mov,mp4,m4a,3gp,3g2,mj2, from '/testdatahdd/datasets/ujjivan/voicecollectionblobcontainer/1567927361_155_146.mp3':\n  Metadata:\n    major_brand     : 3gp4\n    minor_version   : 0\n    compatible_brands: isom3gp4\n    creation_time   : 2019-09-08T07:22:32.000000Z\n    com.android.version: 8.1.0\n  Duration: 00:00:03.46, start: 0.000000, bitrate: 103 kb/s\n    Stream #0:0(eng): Audio: aac (LC) (mp4a / 0x6134706D), 16000 Hz, mono, fltp, 96 kb/s (default)\n    Metadata:\n      creation_time   : 2019-09-08T07:22:32.000000Z\n      handler_name    : SoundHandle\n/testdatahdd/datasets/ujjivan/wavs/ta/1567927361_155_146.temp.wav: Permission denied\n"
2020-08-05 12:25:29,833 b"rm: cannot remove '/testdatahdd/datasets/ujjivan/wavs/ta/1567927361_155_146.temp.wav': No such file or directory\n"
2020-08-05 12:25:29,833 b"sox FAIL formats: can't open input file `/testdatahdd/datasets/ujjivan/wavs/ta/1567927361_155_146.temp.wav': No such file or directory\n"
2020-08-05 12:25:31,336 b"Input #0, mov,mp4,m4a,3gp,3g2,mj2, from '/testdatahdd/datasets/ujjivan/voicecollectionblobcontainer/1564386779_129_146.mp3':\n  Metadata:\n    major_brand     : 3gp4\n    minor_version   : 0\n    compatible_brands: isom3gp4\n    creation_time   : 2019-07-29T07:52:51.000000Z\n    com.android.version: 8.1.0\n  Duration: 00:00:02.62, start: 0.000000, bitrate: 105 kb/s\n    Stream #0:0(eng): Audio: aac (LC) (mp4a / 0x6134706D), 16000 Hz, mono, fltp, 96 kb/s (default)\n    Metadata:\n      creation_time   : 2019-07-29T07:52:51.000000Z\n      handler_name    : SoundHandle\n/testdatahdd/datasets/ujjivan/wavs/ta/1564386779_129_146.temp.wav: Permission denied\n"
2020-08-05 12:25:31,344 b"rm: cannot remove '/testdatahdd/datasets/ujjivan/wavs/ta/1564386779_129_146.temp.wav': No such file or directory\n"
2020-08-05 12:25:31,344 b"sox FAIL formats: can't open input file `/testdatahdd/datasets/ujjivan/wavs/ta/1564386779_129_146.temp.wav': No such file or directory\n"
2020-08-05 12:25:31,661 b"Input #0, mov,mp4,m4a,3gp,3g2,mj2, from '/testdatahdd/datasets/ujjivan/voicecollectionblobcontainer/1566542776_150_146.mp3':\n  Metadata:\n    major_brand     : 3gp4\n    minor_version   : 0\n    compatible_brands: isom3gp4\n    creation_time   : 2019-08-23T06:46:02.000000Z\n    com.android.version: 9\n  Duration: 00:00:03.33, start: 0.000000, bitrate: 103 kb/s\n    Stream #0:0(eng): Audio: aac (LC) (mp4a / 0x6134706D), 16000 Hz, mono, fltp, 96 kb/s (default)\n    Metadata:\n      creation_time   : 2019-08-23T06:46:02.000000Z\n      handler_name    : SoundHandle\n/testdatahdd/datasets/ujjivan/wavs/ta/1566542776_150_146.temp.wav: Permission denied\n"
2020-08-05 12:25:31,668 b"rm: cannot remove '/testdatahdd/datasets/ujjivan/wavs/ta/1566542776_150_146.temp.wav': No such file or directory\n"
2020-08-05 12:25:31,670 b"sox FAIL formats: can't open input file `/testdatahdd/datasets/ujjivan/wavs/ta/1566542776_150_146.temp.wav': No such file or directory\n"
2020-08-05 12:25:35,316 b"Input #0, mov,mp4,m4a,3gp,3g2,mj2, from '/testdatahdd/datasets/ujjivan/voicecollectionblobcontainer/1566643035_154_146.mp3':\n  Metadata:\n    major_brand     : 3gp4\n    minor_version   : 0\n    compatible_brands: isom3gp4\n    creation_time   : 2019-08-24T10:36:08.000000Z\n    com.android.version: 7.1.1\n  Duration: 00:00:04.16, start: 0.000000, bitrate: 97 kb/s\n    Stream #0:0(eng): Audio: aac (LC) (mp4a / 0x6134706D), 16000 Hz, mono, fltp, 96 kb/s (default)\n    Metadata:\n      creation_time   : 2019-08-24T10:36:08.000000Z\n      handler_name    : SoundHandle\n/testdatahdd/datasets/ujjivan/wavs/ta/1566643035_154_146.temp.wav: Permission denied\n"
2020-08-05 12:25:35,323 b"rm: cannot remove '/testdatahdd/datasets/ujjivan/wavs/ta/1566643035_154_146.temp.wav': No such file or directory\n"
2020-08-05 12:25:35,324 b"sox FAIL formats: can't open input file `/testdatahdd/datasets/ujjivan/wavs/ta/1566643035_154_146.temp.wav': No such file or directory\n"
2020-08-05 12:25:36,909 b"Input #0, mov,mp4,m4a,3gp,3g2,mj2, from '/testdatahdd/datasets/ujjivan/voicecollectionblobcontainer/1567094026_137_146.mp3':\n  Metadata:\n    major_brand     : 3gp4\n    minor_version   : 0\n    compatible_brands: isom3gp4\n    creation_time   : 2019-08-29T15:56:35.000000Z\n    com.android.version: 9\n  Duration: 00:00:04.86, start: 0.000000, bitrate: 97 kb/s\n    Stream #0:0(eng): Audio: aac (LC) (mp4a / 0x6134706D), 16000 Hz, mono, fltp, 96 kb/s (default)\n    Metadata:\n      creation_time   : 2019-08-29T15:56:35.000000Z\n      handler_name    : SoundHandle\n/testdatahdd/datasets/ujjivan/wavs/ta/1567094026_137_146.temp.wav: Permission denied\n"
2020-08-05 12:25:36,917 b"rm: cannot remove '/testdatahdd/datasets/ujjivan/wavs/ta/1567094026_137_146.temp.wav': No such file or directory\n"
2020-08-05 12:25:36,917 b"sox FAIL formats: can't open input file `/testdatahdd/datasets/ujjivan/wavs/ta/1567094026_137_146.temp.wav': No such file or directory\n"
2020-08-05 12:25:37,652 b"Input #0, mov,mp4,m4a,3gp,3g2,mj2, from '/testdatahdd/datasets/ujjivan/voicecollectionblobcontainer/1568300479_136_146.mp3':\n  Metadata:\n    major_brand     : 3gp4\n    minor_version   : 0\n    compatible_brands: isom3gp4\n    creation_time   : 2019-09-12T15:01:12.000000Z\n    com.android.version: 7.0\n  Duration: 00:00:02.69, start: 0.000000, bitrate: 105 kb/s\n    Stream #0:0(eng): Audio: aac (LC) (mp4a / 0x6134706D), 16000 Hz, mono, fltp, 96 kb/s (default)\n    Metadata:\n      creation_time   : 2019-09-12T15:01:12.000000Z\n      handler_name    : SoundHandle\n/testdatahdd/datasets/ujjivan/wavs/ta/1568300479_136_146.temp.wav: Permission denied\n"
2020-08-05 12:25:37,660 b"rm: cannot remove '/testdatahdd/datasets/ujjivan/wavs/ta/1568300479_136_146.temp.wav': No such file or directory\n"
2020-08-05 12:25:37,661 b"sox FAIL formats: can't open input file `/testdatahdd/datasets/ujjivan/wavs/ta/1568300479_136_146.temp.wav': No such file or directory\n"
2020-08-05 12:25:39,721 b"Input #0, mov,mp4,m4a,3gp,3g2,mj2, from '/testdatahdd/datasets/ujjivan/voicecollectionblobcontainer/1564217702_119_146.mp3':\n  Metadata:\n    major_brand     : 3gp4\n    minor_version   : 0\n    compatible_brands: isom3gp4\n    creation_time   : 2019-07-27T08:55:12.000000Z\n    com.android.version: 9\n  Duration: 00:00:03.33, start: 0.000000, bitrate: 103 kb/s\n    Stream #0:0(eng): Audio: aac (LC) (mp4a / 0x6134706D), 16000 Hz, mono, fltp, 96 kb/s (default)\n    Metadata:\n      creation_time   : 2019-07-27T08:55:12.000000Z\n      handler_name    : SoundHandle\n/testdatahdd/datasets/ujjivan/wavs/ta/1564217702_119_146.temp.wav: Permission denied\n"
2020-08-05 12:25:39,728 b"rm: cannot remove '/testdatahdd/datasets/ujjivan/wavs/ta/1564217702_119_146.temp.wav': No such file or directory\n"
2020-08-05 12:25:39,729 b"sox FAIL formats: can't open input file `/testdatahdd/datasets/ujjivan/wavs/ta/1564217702_119_146.temp.wav': No such file or directory\n"
2020-08-05 12:25:42,058 b"Input #0, mov,mp4,m4a,3gp,3g2,mj2, from '/testdatahdd/datasets/ujjivan/voicecollectionblobcontainer/1564031290_118_146.mp3':\n  Metadata:\n    major_brand     : 3gp4\n    minor_version   : 0\n    compatible_brands: isom3gp4\n    creation_time   : 2019-07-25T05:08:04.000000Z\n    com.android.version: 8.1.0\n  Duration: 00:00:02.30, start: 0.000000, bitrate: 118 kb/s\n    Stream #0:0(eng): Audio: aac (LC) (mp4a / 0x6134706D), 16000 Hz, mono, fltp, 96 kb/s (default)\n    Metadata:\n      creation_time   : 2019-07-25T05:08:04.000000Z\n      handler_name    : SoundHandle\n/testdatahdd/datasets/ujjivan/wavs/ta/1564031290_118_146.temp.wav: Permission denied\n"
2020-08-05 12:25:42,067 b"rm: cannot remove '/testdatahdd/datasets/ujjivan/wavs/ta/1564031290_118_146.temp.wav': No such file or directory\n"
2020-08-05 12:25:42,068 b"sox FAIL formats: can't open input file `/testdatahdd/datasets/ujjivan/wavs/ta/1564031290_118_146.temp.wav': No such file or directory\n"
2020-08-05 12:25:43,450 b"Input #0, mov,mp4,m4a,3gp,3g2,mj2, from '/testdatahdd/datasets/ujjivan/voicecollectionblobcontainer/1566870462_145_146.mp3':\n  Metadata:\n    major_brand     : 3gp4\n    minor_version   : 0\n    compatible_brands: isom3gp4\n    creation_time   : 2019-08-27T01:47:36.000000Z\n    com.android.version: 7.1.1\n  Duration: 00:00:03.14, start: 0.000000, bitrate: 97 kb/s\n    Stream #0:0(eng): Audio: aac (LC) (mp4a / 0x6134706D), 16000 Hz, mono, fltp, 96 kb/s (default)\n    Metadata:\n      creation_time   : 2019-08-27T01:47:36.000000Z\n      handler_name    : SoundHandle\n/testdatahdd/datasets/ujjivan/wavs/ta/1566870462_145_146.temp.wav: Permission denied\n"
2020-08-05 12:25:43,458 b"rm: cannot remove '/testdatahdd/datasets/ujjivan/wavs/ta/1566870462_145_146.temp.wav': No such file or directory\n"
2020-08-05 12:25:43,459 b"sox FAIL formats: can't open input file `/testdatahdd/datasets/ujjivan/wavs/ta/1566870462_145_146.temp.wav': No such file or directory\n"
2020-08-05 12:25:46,736 b"Input #0, mov,mp4,m4a,3gp,3g2,mj2, from '/testdatahdd/datasets/ujjivan/voicecollectionblobcontainer/1566729261_159_146.mp3':\n  Metadata:\n    major_brand     : 3gp4\n    minor_version   : 0\n    compatible_brands: isom3gp4\n    creation_time   : 2019-08-25T10:34:13.000000Z\n    com.android.version: 7.0\n  Duration: 00:00:02.88, start: 0.000000, bitrate: 98 kb/s\n    Stream #0:0(eng): Audio: aac (LC) (mp4a / 0x6134706D), 16000 Hz, mono, fltp, 96 kb/s (default)\n    Metadata:\n      creation_time   : 2019-08-25T10:34:13.000000Z\n      handler_name    : SoundHandle\n/testdatahdd/datasets/ujjivan/wavs/ta/1566729261_159_146.temp.wav: Permission denied\n"
2020-08-05 12:25:46,743 b"rm: cannot remove '/testdatahdd/datasets/ujjivan/wavs/ta/1566729261_159_146.temp.wav': No such file or directory\n"
2020-08-05 12:25:46,744 b"sox FAIL formats: can't open input file `/testdatahdd/datasets/ujjivan/wavs/ta/1566729261_159_146.temp.wav': No such file or directory\n"
2020-08-05 12:25:49,214 b"Input #0, mov,mp4,m4a,3gp,3g2,mj2, from '/testdatahdd/datasets/ujjivan/voicecollectionblobcontainer/1566974846_139_146.mp3':\n  Metadata:\n    major_brand     : 3gp4\n    minor_version   : 0\n    compatible_brands: isom3gp4\n    creation_time   : 2019-08-28T06:46:48.000000Z\n    com.android.version: 9\n  Duration: 00:00:03.52, start: 0.000000, bitrate: 97 kb/s\n    Stream #0:0(eng): Audio: aac (LC) (mp4a / 0x6134706D), 16000 Hz, mono, fltp, 96 kb/s (default)\n    Metadata:\n      creation_time   : 2019-08-28T06:46:48.000000Z\n      handler_name    : SoundHandle\n/testdatahdd/datasets/ujjivan/wavs/ta/1566974846_139_146.temp.wav: Permission denied\n"
2020-08-05 12:25:49,222 b"rm: cannot remove '/testdatahdd/datasets/ujjivan/wavs/ta/1566974846_139_146.temp.wav': No such file or directory\n"
2020-08-05 12:25:49,224 b"sox FAIL formats: can't open input file `/testdatahdd/datasets/ujjivan/wavs/ta/1566974846_139_146.temp.wav': No such file or directory\n"
2020-08-05 12:25:51,549 b"Input #0, mov,mp4,m4a,3gp,3g2,mj2, from '/testdatahdd/datasets/ujjivan/voicecollectionblobcontainer/1569912376_162_146.mp3':\n  Metadata:\n    major_brand     : 3gp4\n    minor_version   : 0\n    compatible_brands: isom3gp4\n    creation_time   : 2019-10-01T06:46:05.000000Z\n    com.android.version: 9\n  Duration: 00:00:03.20, start: 0.000000, bitrate: 104 kb/s\n    Stream #0:0(eng): Audio: aac (LC) (mp4a / 0x6134706D), 16000 Hz, mono, fltp, 96 kb/s (default)\n    Metadata:\n      creation_time   : 2019-10-01T06:46:05.000000Z\n      handler_name    : SoundHandle\n/testdatahdd/datasets/ujjivan/wavs/ta/1569912376_162_146.temp.wav: Permission denied\n"
2020-08-05 12:25:51,557 b"rm: cannot remove '/testdatahdd/datasets/ujjivan/wavs/ta/1569912376_162_146.temp.wav': No such file or directory\n"
2020-08-05 12:25:51,558 b"sox FAIL formats: can't open input file `/testdatahdd/datasets/ujjivan/wavs/ta/1569912376_162_146.temp.wav': No such file or directory\n"
2020-08-05 12:25:51,934 b"Input #0, mov,mp4,m4a,3gp,3g2,mj2, from '/testdatahdd/datasets/ujjivan/voicecollectionblobcontainer/1567263850_147_146.mp3':\n  Metadata:\n    major_brand     : 3gp4\n    minor_version   : 0\n    compatible_brands: isom3gp4\n    creation_time   : 2019-08-31T15:04:03.000000Z\n    com.android.version: 9\n  Duration: 00:00:03.26, start: 0.000000, bitrate: 103 kb/s\n    Stream #0:0(eng): Audio: aac (LC) (mp4a / 0x6134706D), 16000 Hz, mono, fltp, 96 kb/s (default)\n    Metadata:\n      creation_time   : 2019-08-31T15:04:03.000000Z\n      handler_name    : SoundHandle\n/testdatahdd/datasets/ujjivan/wavs/ta/1567263850_147_146.temp.wav: Permission denied\n"
2020-08-05 12:25:51,942 b"rm: cannot remove '/testdatahdd/datasets/ujjivan/wavs/ta/1567263850_147_146.temp.wav': No such file or directory\n"
2020-08-05 12:25:51,943 b"sox FAIL formats: can't open input file `/testdatahdd/datasets/ujjivan/wavs/ta/1567263850_147_146.temp.wav': No such file or directory\n"
2020-08-05 12:25:55,683 b"Input #0, mov,mp4,m4a,3gp,3g2,mj2, from '/testdatahdd/datasets/ujjivan/voicecollectionblobcontainer/1564213141_107_146.mp3':\n  Metadata:\n    major_brand     : 3gp4\n    minor_version   : 0\n    compatible_brands: isom3gp4\n    creation_time   : 2019-07-27T07:38:53.000000Z\n    com.android.version: 8.1.0\n  Duration: 00:00:02.62, start: 0.000000, bitrate: 105 kb/s\n    Stream #0:0(eng): Audio: aac (LC) (mp4a / 0x6134706D), 16000 Hz, mono, fltp, 96 kb/s (default)\n    Metadata:\n      creation_time   : 2019-07-27T07:38:53.000000Z\n      handler_name    : SoundHandle\n/testdatahdd/datasets/ujjivan/wavs/ta/1564213141_107_146.temp.wav: Permission denied\n"
2020-08-05 12:25:55,691 b"rm: cannot remove '/testdatahdd/datasets/ujjivan/wavs/ta/1564213141_107_146.temp.wav': No such file or directory\n"
2020-08-05 12:25:55,692 b"sox FAIL formats: can't open input file `/testdatahdd/datasets/ujjivan/wavs/ta/1564213141_107_146.temp.wav': No such file or directory\n"
2020-08-05 12:25:57,277 b"Input #0, mov,mp4,m4a,3gp,3g2,mj2, from '/testdatahdd/datasets/ujjivan/voicecollectionblobcontainer/1566968950_143_146.mp3':\n  Metadata:\n    major_brand     : 3gp4\n    minor_version   : 0\n    compatible_brands: isom3gp4\n    creation_time   : 2019-08-28T05:09:02.000000Z\n    com.android.version: 8.1.0\n  Duration: 00:00:03.20, start: 0.000000, bitrate: 104 kb/s\n    Stream #0:0(eng): Audio: aac (LC) (mp4a / 0x6134706D), 16000 Hz, mono, fltp, 96 kb/s (default)\n    Metadata:\n      creation_time   : 2019-08-28T05:09:02.000000Z\n      handler_name    : SoundHandle\n/testdatahdd/datasets/ujjivan/wavs/ta/1566968950_143_146.temp.wav: Permission denied\n"
2020-08-05 12:25:57,284 b"rm: cannot remove '/testdatahdd/datasets/ujjivan/wavs/ta/1566968950_143_146.temp.wav': No such file or directory\n"
2020-08-05 12:25:57,286 b"sox FAIL formats: can't open input file `/testdatahdd/datasets/ujjivan/wavs/ta/1566968950_143_146.temp.wav': No such file or directory\n"
2020-08-05 12:25:58,850 b"Input #0, mov,mp4,m4a,3gp,3g2,mj2, from '/testdatahdd/datasets/ujjivan/voicecollectionblobcontainer/1568166781_188_146.mp3':\n  Metadata:\n    major_brand     : 3gp4\n    minor_version   : 0\n    compatible_brands: isom3gp4\n    creation_time   : 2019-09-11T01:48:24.000000Z\n    com.android.version: 9\n  Duration: 00:00:00.64, start: 0.000000, bitrate: 136 kb/s\n    Stream #0:0(eng): Audio: aac (LC) (mp4a / 0x6134706D), 16000 Hz, mono, fltp, 96 kb/s (default)\n    Metadata:\n      creation_time   : 2019-09-11T01:48:24.000000Z\n      handler_name    : SoundHandle\n/testdatahdd/datasets/ujjivan/wavs/ta/1568166781_188_146.temp.wav: Permission denied\n"
2020-08-05 12:25:58,859 b"rm: cannot remove '/testdatahdd/datasets/ujjivan/wavs/ta/1568166781_188_146.temp.wav': No such file or directory\n"
2020-08-05 12:25:58,861 b"sox FAIL formats: can't open input file `/testdatahdd/datasets/ujjivan/wavs/ta/1568166781_188_146.temp.wav': No such file or directory\n"
